<svg width="343" height="343" viewBox="0 0 343 343" fill="none" xmlns="http://www.w3.org/2000/svg">
<path fill-rule="evenodd" clip-rule="evenodd" d="M57.5 11.8333H285.595C297.694 11.8333 309.298 16.6395 317.853 25.1948C326.408 33.75 331.214 45.3534 331.214 57.4523V285.548C331.214 297.646 326.408 309.25 317.853 317.805C309.298 326.36 297.694 331.167 285.595 331.167H57.5C45.4011 331.167 33.7977 326.36 25.2425 317.805C16.6873 309.25 11.881 297.646 11.881 285.548V57.4523C11.881 45.3534 16.6873 33.75 25.2425 25.1948C33.7977 16.6395 45.4011 11.8333 57.5 11.8333V11.8333Z" stroke="white" stroke-width="22.8095" stroke-linecap="round" stroke-linejoin="round"/>
<path fill-rule="evenodd" clip-rule="evenodd" d="M57.5 57.4523H285.595C297.694 57.4523 309.298 62.2586 317.853 70.8138C326.408 79.369 331.214 90.9724 331.214 103.071V57.4523C331.214 34.6428 310.8 11.8333 285.595 11.8333H57.5C32.2955 11.8333 11.881 34.6428 11.881 57.4523V103.071C11.881 90.9724 16.6873 79.369 25.2425 70.8138C33.7977 62.2586 45.4011 57.4523 57.5 57.4523Z" fill="white" stroke="white" stroke-width="22.8095" stroke-linecap="round" stroke-linejoin="round"/>
<path d="M103.073 171.5H125.883" stroke="white" stroke-width="22.8095" stroke-linecap="round" stroke-linejoin="round"/>
<path d="M103.073 125.881H194.243" stroke="white" stroke-width="22.8095" stroke-linecap="round" stroke-linejoin="round"/>
<path d="M103.073 217.119H239.862" stroke="white" stroke-width="22.8095" stroke-linecap="round" stroke-linejoin="round"/>
<path d="M103.073 262.738H194.243" stroke="white" stroke-width="22.8095" stroke-linecap="round" stroke-linejoin="round"/>
</svg>
