<svg width="91" height="90" viewBox="0 0 91 90" fill="none" xmlns="http://www.w3.org/2000/svg">
	<path d="M90.3571 19.4694L78.8347 15.4604C76.1585 6.99491 68.106 0 58.6139 0C46.9423 0 37.4468 9.32143 37.4468 20.7786C37.4468 28.2633 41.5003 34.8348 47.5642 38.4933C45.5537 38.8761 43.4799 39.0773 41.3655 39.0773C30.889 39.0773 21.3745 34.2173 15.9139 26.0765L13.9321 23.1225L11.3674 25.6062C4.03698 32.7057 0 42.0005 0 51.7798C0 72.7492 18.5567 89.8095 41.3655 89.8095C64.1747 89.8095 82.7314 72.7492 82.7314 51.7798C82.7314 44.6356 80.568 37.7543 76.5492 31.7945C77.485 30.3319 78.2906 27.2829 78.8347 25.6062L90.3571 19.4694ZM61.7401 19.4694C59.4846 19.4694 57.6562 17.6745 57.6562 15.4604C57.6562 13.2462 59.4846 11.4514 61.7401 11.4514C63.9956 11.4514 65.8239 13.2462 65.8239 15.4604C65.8239 17.6745 63.9956 19.4694 61.7401 19.4694Z" fill="white"/>
	<path d="M78.6704 15.9326L89.1126 19.5657L78.5997 25.1649L78.4215 25.2599L78.3591 25.4519C78.2409 25.8163 78.1175 26.2208 77.9857 26.6527C77.7986 27.2661 77.5947 27.9347 77.3647 28.622C76.9781 29.7772 76.559 30.8514 76.128 31.5251L75.951 31.8018L76.1347 32.0741C80.0996 37.9539 82.2314 44.7384 82.2314 51.7798C82.2314 72.4343 63.939 89.3095 41.3655 89.3095C18.7925 89.3095 0.5 72.4343 0.5 51.7798C0.5 42.1424 4.47733 32.9753 11.7152 25.9654C11.7153 25.9654 11.7153 25.9654 11.7153 25.9654L13.8502 23.8979L15.4986 26.3551C21.0595 34.6452 30.736 39.5773 41.3655 39.5773C43.5116 39.5773 45.6168 39.3731 47.6577 38.9845L48.9412 38.7402L47.8225 38.0652C41.8991 34.4915 37.9468 28.0773 37.9468 20.7786C37.9468 9.60626 47.2097 0.5 58.6139 0.5C67.8567 0.5 75.7375 7.32209 78.358 15.6111L78.4336 15.8502L78.6704 15.9326ZM57.1562 15.4604C57.1562 17.9593 59.2172 19.9694 61.7401 19.9694C64.2629 19.9694 66.3239 17.9593 66.3239 15.4604C66.3239 12.9614 64.2629 10.9514 61.7401 10.9514C59.2172 10.9514 57.1562 12.9614 57.1562 15.4604Z" stroke="black" stroke-opacity="0.19"/>
</svg>

