<svg width="87" height="90" viewBox="0 0 87 90" fill="none" xmlns="http://www.w3.org/2000/svg">
<path d="M90.6428 19.6549L79.1204 15.6459C76.4442 7.18048 68.3918 0.18557 58.8996 0.18557C47.228 0.18557 37.7325 9.507 37.7325 20.9642C37.7325 28.4489 41.786 35.0203 47.8499 38.6789C45.8394 39.0617 43.7656 39.2628 41.6512 39.2628C31.1748 39.2628 21.6602 34.4028 16.1996 26.2621L14.2178 23.3081L11.6531 25.7918C4.32268 32.8912 0.285706 42.1861 0.285706 51.9654C0.285706 72.9348 18.8425 89.9951 41.6512 89.9951C64.4604 89.9951 83.0171 72.9348 83.0171 51.9654C83.0171 44.8212 80.8538 37.9399 76.8349 31.9801C77.7707 30.5174 78.5763 27.4685 79.1204 25.7918L90.6428 19.6549ZM62.0258 19.6549C59.7703 19.6549 57.9419 17.8601 57.9419 15.6459C57.9419 13.4318 59.7703 11.6369 62.0258 11.6369C64.2813 11.6369 66.1096 13.4318 66.1096 15.6459C66.1096 17.8601 64.2813 19.6549 62.0258 19.6549Z" fill="#1F2B37"/>
</svg>
